<?xml version="1.0" encoding="iso-8859-1"?>
<!-- Uploaded to: SVG Repo, www.svgrepo.com, Generator: SVG Repo Mixer Tools -->
<svg version="1.1" id="Layer_1" xmlns="http://www.w3.org/2000/svg" xmlns:xlink="http://www.w3.org/1999/xlink" 
	 viewBox="0 0 512 512" xml:space="preserve">
<polygon style="fill:#FFC473;" points="386.863,248.545 386.863,453.658 125.137,453.658 125.137,248.545 256,129.688 "/>
<polygon style="fill:#FFA91F;" points="386.863,248.545 386.863,453.658 256,453.658 256,129.688 "/>
<path style="fill:#A17852;" d="M296.02,372.156v68.441H215.98v-68.441c0-22.11,17.92-40.02,40.02-40.02
	c11.055,0,21.055,4.483,28.296,11.713C291.537,351.101,296.02,361.101,296.02,372.156z"/>
<rect x="230.4" y="252.176" style="fill:#36CD90;" width="51.2" height="31.347"/>
<rect x="256" y="252.176" style="fill:#00A653;" width="25.6" height="31.347"/>
<path style="fill:#735538;" d="M284.296,343.85c7.241,7.252,11.724,17.251,11.724,28.306v68.441H256v-108.46
	C267.055,332.136,277.055,336.619,284.296,343.85z"/>
<polygon style="fill:#9A4C00;" points="483.422,271.156 365.14,271.156 256,172.037 146.86,271.156 28.578,271.156 256,58.342 "/>
<polygon style="fill:#723700;" points="483.422,271.156 365.14,271.156 256,172.037 256,58.342 "/>
<polygon style="fill:#9A4C00;" points="512,422.311 512,453.658 0,453.658 0,422.311 46.885,422.311 46.885,356.639 78.232,356.639 
	78.232,422.311 433.068,422.311 433.068,356.639 464.415,356.639 464.415,422.311 "/>
<path style="fill:#36CD90;" d="M111.322,332.133c0,26.885-21.87,48.765-48.765,48.765c-26.885,0-48.755-21.88-48.755-48.765
	c0-26.885,21.87-48.765,48.755-48.765C89.453,283.367,111.322,305.248,111.322,332.133z"/>
<path style="fill:#00A653;" d="M111.322,332.133c0,26.885-21.87,48.765-48.765,48.765v-97.531
	C89.453,283.367,111.322,305.248,111.322,332.133z"/>
<polygon style="fill:#723700;" points="512,422.311 512,453.658 256,453.658 256,422.311 433.068,422.311 433.068,356.639 
	464.415,356.639 464.415,422.311 "/>
<path style="fill:#36CD90;" d="M497.507,332.133c0,26.885-21.87,48.765-48.765,48.765c-26.885,0-48.755-21.88-48.755-48.765
	c0-26.885,21.87-48.765,48.755-48.765C475.638,283.367,497.507,305.248,497.507,332.133z"/>
<path style="fill:#00A653;" d="M497.507,332.133c0,26.885-21.87,48.765-48.765,48.765v-97.531
	C475.638,283.367,497.507,305.248,497.507,332.133z"/>
</svg>